<svg xmlns="http://www.w3.org/2000/svg" width="1061.9431497451915" height="1231.0016602603957" style="background: rgba(0, 0, 0, 0);"><rect width="100%" height="100%" fill="rgba(0,0,0,0)"/><g transform="translate(530.9715576171875,615.5008544921875) scale(1) translate(23.135243445570552,-13.033768369221434)"><path d="M-120.98773560262546,273.55093080640927 Q-171.95329529854965,278.450986280932,-195.73469967428923,276.27030908382693 Q-219.51610405002882,274.08963188672186,-219.51610405002882,274.08963188672186" stroke="#A5ABB6" stroke-width="1.2000000476837158" fill="none"/><polygon points="-227.28351737832847,273.3773854248269 -216.91215471093392,278.5460261642274 -216.14512005966247,270.18111950298163" fill="#A5ABB6"/><text x="-171.10260756243838" y="272.5356336706976" text-anchor="middle" dominant-baseline="alphabetic" font-size="7.200000286102295" font-family="&quot;Open Sans&quot;, sans-serif" fill="#bbbec3ff" transform="rotate(-0.025001387700767007,-171.10260756243838,276.13563381374877)"><tspan>HAS_COLUMN</tspan></text><path d="M-224.8966560058975,262.88020391500856 Q-172.9458498052986,257.9798691443371,-149.65660663846288,260.15615663343965 Q-126.36736347162717,262.33244412254214,-126.36736347162717,262.33244412254214" stroke="#A5ABB6" stroke-width="1.2000000476837158" fill="none"/><polygon points="-118.60119717200283,263.0581615894039 -128.96357956624948,257.8715401662592 -129.74512145363897,266.23510387354696" fill="#A5ABB6"/><text x="-174.28892977203049" y="256.6930964385051" text-anchor="middle" dominant-baseline="alphabetic" font-size="7.200000286102295" font-family="&quot;Open Sans&quot;, sans-serif" fill="#bbbec3ff" transform="rotate(-0.025001387700767007,-174.28892977203049,260.29309658155626)"><tspan>BELONGS_TO</tspan></text><path d="M-100.66483887009343,300.1606281023012 Q-122.5874144185064,343.08900222555275,-136.50443768291638,360.61498459100017 Q-150.42146094732632,378.1409669564475,-150.42146094732632,378.1409669564475" stroke="#A5ABB6" stroke-width="1.2000000476837158" fill="none"/><polygon points="-155.2719989478835,384.24934529609544 -145.26674261037854,378.40341882611375 -151.84499620692245,373.1797625178214" fill="#A5ABB6"/><text x="-124.06528216360815" y="337.51989973441243" text-anchor="middle" dominant-baseline="alphabetic" font-size="7.200000286102295" font-family="&quot;Open Sans&quot;, sans-serif" fill="#bbbec3ff" transform="rotate(-57.13364878203624,-124.06528216360815,341.1198998774636)"><tspan>HAS_COLUM...</tspan></text><path d="M-162.77891843265206,376.5532774470871 Q-140.32252552304348,332.799017524157,-126.67637507386613,315.6827578681296 Q-113.03022462468876,298.5664982121022,-113.03022462468876,298.5664982121022" stroke="#A5ABB6" stroke-width="1.2000000476837158" fill="none"/><polygon points="-108.16779054623292,292.4675852214292 -118.18442164984187,298.29400024319256 -111.61636150604015,303.53046771229884" fill="#A5ABB6"/><text x="-139.11354852585694" y="331.5794525338247" text-anchor="middle" dominant-baseline="alphabetic" font-size="7.200000286102295" font-family="&quot;Open Sans&quot;, sans-serif" fill="#bbbec3ff" transform="rotate(-57.13364878203624,-139.11354852585694,335.1794526768758)"><tspan>BELONGS_TO</tspan></text><path d="M-199.2227257292687,381.4011186436748 Q-226.61888402328725,344.4290620944927,-235.47744972206448,325.0756547993469 Q-244.33601542084173,305.7222475042012,-244.33601542084173,305.7222475042012" stroke="#A5ABB6" stroke-width="1.2000000476837158" fill="none"/><polygon points="-247.5823646628822,298.62991210365567 -246.9063693895815,310.1981030193559 -239.26846972745548,306.70203460485084" fill="#A5ABB6"/><text x="-224.19912729917124" y="340.3953724411642" text-anchor="middle" dominant-baseline="alphabetic" font-size="7.200000286102295" font-family="&quot;Open Sans&quot;, sans-serif" fill="#bbbec3ff" transform="rotate(59.55819098280159,-224.19912729917124,343.9953725842154)"><tspan>FOREIGN_KE...</tspan></text><path d="M-237.34485244041298,295.3850581087902 Q-209.45143334004732,333.20367192285704,-200.83639930079894,352.1315392977939 Q-192.22136526155057,371.0594066727308,-192.22136526155057,371.0594066727308" stroke="#A5ABB6" stroke-width="1.2000000476837158" fill="none"/><polygon points="-188.9901409345908,378.1586456589879 -189.64147670239666,366.5890401173459 -197.2868109952889,370.06882016176417" fill="#A5ABB6"/><text x="-212.11727109551452" y="329.61295201375765" text-anchor="middle" dominant-baseline="alphabetic" font-size="7.200000286102295" font-family="&quot;Open Sans&quot;, sans-serif" fill="#bbbec3ff" transform="rotate(59.55819098280159,-212.11727109551452,333.2129521568088)"><tspan>FOREIGN_KE...</tspan></text><path d="M-57.295846468305726,287.7007949699225 Q-18.849066072422733,316.50002452434035,-4.009275397259336,333.14119291873493 Q10.83051527790406,349.7823613131295,10.83051527790406,349.7823613131295" stroke="#A5ABB6" stroke-width="1.2000000476837158" fill="none"/><polygon points="16.021856817758522,355.60387124198047 11.968504647341327,344.7479812805729 5.6991862624249015,350.33865678503156" fill="#A5ABB6"/><text x="-21.040865833811782" y="314.02080118988204" text-anchor="middle" dominant-baseline="alphabetic" font-size="7.200000286102295" font-family="&quot;Open Sans&quot;, sans-serif" fill="#bbbec3ff" transform="rotate(42.67005466823625,-21.040865833811782,317.6208013329332)"><tspan>HAS_COLUM...</tspan></text><path d="M7.160565140281268,361.69015975440686 Q-32.00906171555164,332.22435690287807,-46.49130378964372,315.91985358910506 Q-60.973545863735815,299.615350275332,-60.973545863735815,299.615350275332" stroke="#A5ABB6" stroke-width="1.2000000476837158" fill="none"/><polygon points="-66.1534558063187,293.78366631425695 -62.12141032639817,304.64748792175163 -55.84113529139429,299.0691233682008" fill="#A5ABB6"/><text x="-29.457776038639455" y="327.8385558158226" text-anchor="middle" dominant-baseline="alphabetic" font-size="7.200000286102295" font-family="&quot;Open Sans&quot;, sans-serif" fill="#bbbec3ff" transform="rotate(42.67005466823625,-29.457776038639455,331.43855595887374)"><tspan>BELONGS_TO</tspan></text><path d="M-52.478784345203444,259.36744259361643 Q-4.447556675838264,249.60786845648613,18.337718427945784,249.4985992967779 Q41.12299353172983,249.38933013706966,41.12299353172983,249.38933013706966" stroke="#A5ABB6" stroke-width="1.2000000476837158" fill="none"/><polygon points="48.92290415172292,249.35192485337816 38.10288660205246,245.20376491233935 38.14316921525869,253.60366865694726" fill="#A5ABB6"/><text x="-5.062726041287535" y="248.39312726786343" text-anchor="middle" dominant-baseline="alphabetic" font-size="7.200000286102295" font-family="&quot;Open Sans&quot;, sans-serif" fill="#bbbec3ff" transform="rotate(-5.769910895894845,-5.062726041287535,251.99312741091458)"><tspan>HAS_COLUM...</tspan></text><path d="M47.598531047672374,260.0250418836798 Q-1.4116514553114672,269.8833622516386,-23.707479069173697,269.9482060085943 Q-46.00330668303593,270.01304976555,-46.00330668303593,270.01304976555" stroke="#A5ABB6" stroke-width="1.2000000476837158" fill="none"/><polygon points="-53.80327400535788,270.03573469091236 -42.991104291563175,274.2043071985841 -43.01553421118412,265.8043423899297" fill="#A5ABB6"/><text x="-0.30701963649662267" y="263.8512038950756" text-anchor="middle" dominant-baseline="alphabetic" font-size="7.200000286102295" font-family="&quot;Open Sans&quot;, sans-serif" fill="#bbbec3ff" transform="rotate(-5.769910895894845,-0.30701963649662267,267.4512040381268)"><tspan>BELONGS_TO</tspan></text><path d="M-71.40592219736797,236.5099657973788 Q-48.9360643110726,194.61548005149936,-34.83312433299246,177.66809307195393 Q-20.73018435491232,160.7207060924085,-20.73018435491232,160.7207060924085" stroke="#A5ABB6" stroke-width="1.2000000476837158" fill="none"/><polygon points="-15.740898226466102,154.7251219871171 -25.87753199947163,160.3401612945111 -19.42074911685011,165.71323866360703" fill="#A5ABB6"/><text x="-47.50205879360637" y="193.01540785514538" text-anchor="middle" dominant-baseline="alphabetic" font-size="7.200000286102295" font-family="&quot;Open Sans&quot;, sans-serif" fill="#bbbec3ff" transform="rotate(-55.896668673855224,-47.50205879360637,196.61540799819653)"><tspan>HAS_COLUM...</tspan></text><path d="M-8.404534756160562,162.57932615412054 Q-31.425664068820982,205.28759744029568,-45.24897618503904,221.83149088372647 Q-59.0722883012571,238.37538432715724,-59.0722883012571,238.37538432715724" stroke="#A5ABB6" stroke-width="1.2000000476837158" fill="none"/><polygon points="-64.07356608909764,244.36096912097494 -53.92571272464737,238.76623206144916 -60.37172711798952,233.3802405976209" fill="#A5ABB6"/><text x="-32.58203779876491" y="199.28247619741614" text-anchor="middle" dominant-baseline="alphabetic" font-size="7.200000286102295" font-family="&quot;Open Sans&quot;, sans-serif" fill="#bbbec3ff" transform="rotate(-55.896668673855224,-32.58203779876491,202.8824763404673)"><tspan>BELONGS_TO</tspan></text><path d="M-109.81912218987502,242.14671790660324 Q-139.86292037398138,205.16037384614646,-150.0878352003303,185.56406429799972 Q-160.31275002667923,165.96775474985296,-160.31275002667923,165.96775474985296" stroke="#A5ABB6" stroke-width="1.2000000476837158" fill="none"/><polygon points="-163.92097397698686,159.0525016988392 -162.64856938095292,170.57035728117773 -155.20137378755348,166.6845776423849" fill="#A5ABB6"/><text x="-137.46442824112927" y="201.00880494413613" text-anchor="middle" dominant-baseline="alphabetic" font-size="7.200000286102295" font-family="&quot;Open Sans&quot;, sans-serif" fill="#bbbec3ff" transform="rotate(56.795899325343015,-137.46442824112927,204.60880508718728)"><tspan>HAS_COLUM...</tspan></text><path d="M-153.84400135642113,155.31382665546752 Q-123.26204332927387,193.12277928260352,-113.30155352807407,212.3054220876671 Q-103.34106372687427,231.48806489273068,-103.34106372687427,231.48806489273068" stroke="#A5ABB6" stroke-width="1.2000000476837158" fill="none"/><polygon points="-99.74662732472548,238.41049450855462 -100.99607716533396,226.89012620856442 -108.45100136699054,230.76105771857078" fill="#A5ABB6"/><text x="-125.92728793546078" y="189.66186238530017" text-anchor="middle" dominant-baseline="alphabetic" font-size="7.200000286102295" font-family="&quot;Open Sans&quot;, sans-serif" fill="#bbbec3ff" transform="rotate(56.795899325343015,-125.92728793546078,193.26186252835132)"><tspan>BELONGS_TO</tspan></text><path d="M-6.028052033958543,-250.22107763217426 Q4.351685746741385,-297.0577297705126,13.389927194971285,-317.4054746712437 Q22.428168643201186,-337.7532195719749,22.428168643201186,-337.7532195719749" stroke="#A5ABB6" stroke-width="1.2000000476837158" fill="none"/><polygon points="25.59452729591964,-344.88162596593725 17.37196571848357,-336.71648715653004 25.04871106582768,-333.30656245360245" fill="#A5ABB6"/><text x="6.275872025681354" y="-299.12243932934473" text-anchor="middle" dominant-baseline="alphabetic" font-size="7.200000286102295" font-family="&quot;Open Sans&quot;, sans-serif" fill="#bbbec3ff" transform="rotate(-71.66199603057638,6.275872025681354,-295.5224391862936)"><tspan>HAS_COLUM...</tspan></text><path d="M34.79095274850916,-339.31528144261125 Q24.101694698909533,-291.5453887908563,15.222899693139153,-271.6621195678778 Q6.344104687368772,-251.77885034489938,6.344104687368772,-251.77885034489938" stroke="#A5ABB6" stroke-width="1.2000000476837158" fill="none"/><polygon points="3.1637304597046514,-244.6566860244741 11.402337101314732,-252.80563511478226 3.732313987010597,-256.2306535138052" fill="#A5ABB6"/><text x="22.334611708424248" y="-297.1462274853569" text-anchor="middle" dominant-baseline="alphabetic" font-size="7.200000286102295" font-family="&quot;Open Sans&quot;, sans-serif" fill="#bbbec3ff" transform="rotate(-71.66199603057638,22.334611708424248,-293.54622734230577)"><tspan>BELONGS_TO</tspan></text><path d="M74.88531450653272,-381.03062965127583 Q120.70329525612465,-388.33999685658534,142.15347318184217,-387.2980745859696 Q163.60365110755973,-386.2561523153538,163.60365110755973,-386.2561523153538" stroke="#A5ABB6" stroke-width="1.2000000476837158" fill="none"/><polygon points="171.3944658545171,-385.8777207974798 160.81095471450828,-390.596756993667 160.40341307987472,-382.20664880463596" fill="#A5ABB6"/><text x="119.97388903158543" y="-389.5916940630012" text-anchor="middle" dominant-baseline="alphabetic" font-size="7.200000286102295" font-family="&quot;Open Sans&quot;, sans-serif" fill="#bbbec3ff" transform="rotate(-3.0188052027296868,119.97388903158543,-385.9916939199501)"><tspan>FOREIGN_KE...</tspan></text><path d="M169.55968815557011,-375.29404412603424 Q122.76096848470182,-367.93315961126467,101.80082950201108,-368.9953594021308 Q80.84069051932036,-370.05755919299696,80.84069051932036,-370.05755919299696" stroke="#A5ABB6" stroke-width="1.2000000476837158" fill="none"/><polygon points="73.05068682991771,-370.45233426088004 83.62427459407664,-365.7111052572098 84.0494169748738,-374.1003399996434" fill="#A5ABB6"/><text x="123.98057891107354" y="-373.9044807784413" text-anchor="middle" dominant-baseline="alphabetic" font-size="7.200000286102295" font-family="&quot;Open Sans&quot;, sans-serif" fill="#bbbec3ff" transform="rotate(-3.0188052027296868,123.98057891107354,-370.3044806353902)"><tspan>FOREIGN_KE...</tspan></text><path d="M-46.79819140482177,-217.7672549532233 Q-95.42100927223744,-223.3026564477997,-117.08892885264129,-230.2274181131683 Q-138.75684843304515,-237.1521797785369,-138.75684843304515,-237.1521797785369" stroke="#A5ABB6" stroke-width="1.2000000476837158" fill="none"/><polygon points="-146.18664962951993,-239.52663950992653 -137.1777878282262,-232.23826385297752 -134.62067734826815,-240.23958821841188" fill="#A5ABB6"/><text x="-94.09926459558545" y="-228.98118704989105" text-anchor="middle" dominant-baseline="alphabetic" font-size="7.200000286102295" font-family="&quot;Open Sans&quot;, sans-serif" fill="#bbbec3ff" transform="rotate(12.21962648144498,-94.09926459558545,-225.3811869068399)"><tspan>HAS_COLUM...</tspan></text><path d="M-141.63080690657608,-249.2685980503512 Q-92.04644345407131,-243.5247812996451,-70.85773474448709,-236.70893744793992 Q-49.66902603490287,-229.89309359623473,-49.66902603490287,-229.89309359623473" stroke="#A5ABB6" stroke-width="1.2000000476837158" fill="none"/><polygon points="-42.24373274712811,-227.50457430059237 -51.23878229408574,-234.80998971105285 -53.81103384323906,-226.81352001652616" fill="#A5ABB6"/><text x="-93.8481799624054" y="-245.15281370452018" text-anchor="middle" dominant-baseline="alphabetic" font-size="7.200000286102295" font-family="&quot;Open Sans&quot;, sans-serif" fill="#bbbec3ff" transform="rotate(12.21962648144498,-93.8481799624054,-241.55281356146904)"><tspan>BELONGS_TO</tspan></text><path d="M-208.76274810095035,-237.48728341813742 Q-251.8317281257026,-221.2769825272883,-272.87350647472186,-218.06371895129297 Q-293.9152848237411,-214.8504553752976,-293.9152848237411,-214.8504553752976" stroke="#A5ABB6" stroke-width="1.2000000476837158" fill="none"/><polygon points="-301.62589766327454,-213.67297736108642 -290.3156378778068,-211.15146308255314 -291.5836911238804,-219.4551999866661" fill="#A5ABB6"/><text x="-251.58537229402418" y="-227.32292610505408" text-anchor="middle" dominant-baseline="alphabetic" font-size="7.200000286102295" font-family="&quot;Open Sans&quot;, sans-serif" fill="#bbbec3ff" transform="rotate(-14.529167162250546,-251.58537229402418,-223.72292596200293)"><tspan>FOREIGN_KE...</tspan></text><path d="M-301.9395807671807,-224.40785656672222 Q-257.9201462835335,-240.86426236371196,-237.35437182668312,-243.9599962614314 Q-216.78859736983276,-247.05573015915087,-216.78859736983276,-247.05573015915087" stroke="#A5ABB6" stroke-width="1.2000000476837158" fill="none"/><polygon points="-209.07549247171175,-248.2167717887709 -220.38035243890545,-250.76238601597757 -219.12999991469928,-242.45596535646266" fill="#A5ABB6"/><text x="-258.6421176760201" y="-241.8980280063754" text-anchor="middle" dominant-baseline="alphabetic" font-size="7.200000286102295" font-family="&quot;Open Sans&quot;, sans-serif" fill="#bbbec3ff" transform="rotate(-14.529167162250546,-258.6421176760201,-238.29802786332425)"><tspan>FOREIGN_KE...</tspan></text><path d="M21.27169456450914,-204.24127812492966 Q67.57964266696013,-185.28749922748256,87.06591371254227,-172.5164949932943 Q106.55218475812441,-159.74549075910602,106.55218475812441,-159.74549075910602" stroke="#A5ABB6" stroke-width="1.2000000476837158" fill="none"/><polygon points="113.07594686135452,-155.46991677944112 106.34527763054778,-164.90273726840874 101.74081334475481,-157.87714731108403" fill="#A5ABB6"/><text x="65.74579116413845" y="-187.24044197780134" text-anchor="middle" dominant-baseline="alphabetic" font-size="7.200000286102295" font-family="&quot;Open Sans&quot;, sans-serif" fill="#bbbec3ff" transform="rotate(27.85567394178734,65.74579116413845,-183.6404418347502)"><tspan>HAS_COLUMN</tspan></text><path d="M106.06017217497828,-147.31191491191737 Q58.88182004875971,-166.7258699781369,39.828101760799086,-179.2628353251369 Q20.774383472838462,-191.79980067213694,20.774383472838462,-191.79980067213694" stroke="#A5ABB6" stroke-width="1.2000000476837158" fill="none"/><polygon points="14.258385047716606,-196.08719724336038 20.971938559534255,-186.6421874542931 25.589134867005637,-193.65941652750126" fill="#A5ABB6"/><text x="61.14954893633404" y="-171.74086402813316" text-anchor="middle" dominant-baseline="alphabetic" font-size="7.200000286102295" font-family="&quot;Open Sans&quot;, sans-serif" fill="#bbbec3ff" transform="rotate(27.85567394178734,61.14954893633404,-168.140863885082)"><tspan>BELONGS_TO</tspan></text><polyline points="171.09195410202628,-121.99700264607908 251.86993088429202,-84.08506416120194" stroke="#A5ABB6" stroke-width="1.2000000476837158" fill="none"/><polygon points="258.9309223753361,-80.77109312956458 250.9386108663105,-89.16174074547084 247.36971898608567,-81.55759606280796" fill="#A5ABB6"/><text x="211.48094249315915" y="-106.64103354669166" text-anchor="middle" dominant-baseline="alphabetic" font-size="7.200000286102295" font-family="&quot;Open Sans&quot;, sans-serif" fill="#bbbec3ff" transform="rotate(25.142312586907277,211.48094249315915,-103.04103340364051)"><tspan>FOREIGN_KEY_TO</tspan></text><g class="node" data-id="4:407d7f85-e897-402b-b739-add5998db9c0:0"><circle cx="-86.37933388276818" cy="268.17786384997834" r="30.000001192092896" fill="#dee698"/><text x="-86.37933388276818" y="268.17786384997834" text-anchor="middle" dominant-baseline="auto" font-size="9.917355765981121" font-family="&quot;Open Sans&quot;, sans-serif" fill="#1a1b1d"><tspan>adminis</tspan></text><text x="-86.37933388276818" y="278.0952196159595" text-anchor="middle" dominant-baseline="auto" font-size="9.917355765981121" font-family="&quot;Open Sans&quot;, sans-serif" fill="#1a1b1d"><tspan>trative_</tspan></text></g><g class="node" data-id="4:407d7f85-e897-402b-b739-add5998db9c0:1"><circle cx="-259.50343283999" cy="268.2534076863634" r="30.000001192092896" fill="#ffc7b0"/><text x="-259.50343283999" y="268.2534076863634" text-anchor="middle" dominant-baseline="auto" font-size="9.917355765981121" font-family="&quot;Open Sans&quot;, sans-serif" fill="#1a1b1d"><tspan>adminis</tspan></text><text x="-259.50343283999" y="278.17076345234454" text-anchor="middle" dominant-baseline="auto" font-size="9.917355765981121" font-family="&quot;Open Sans&quot;, sans-serif" fill="#1a1b1d"><tspan>trative_</tspan></text></g><g class="node" data-id="4:407d7f85-e897-402b-b739-add5998db9c0:2"><circle cx="-177.06329202473108" cy="408.5345937310477" r="30.000001192092896" fill="#ffc7b0"/><text x="-177.06329202473108" y="408.5345937310477" text-anchor="middle" dominant-baseline="auto" font-size="9.917355765981121" font-family="&quot;Open Sans&quot;, sans-serif" fill="#1a1b1d"><tspan>adminis</tspan></text><text x="-177.06329202473108" y="418.45194949702886" text-anchor="middle" dominant-baseline="auto" font-size="9.917355765981121" font-family="&quot;Open Sans&quot;, sans-serif" fill="#1a1b1d"><tspan>trative_</tspan></text></g><g class="node" data-id="4:407d7f85-e897-402b-b739-add5998db9c0:3"><circle cx="36.24281038451393" cy="381.21171979116366" r="30.000001192092896" fill="#ffc7b0"/><text x="36.24281038451393" y="381.21171979116366" text-anchor="middle" dominant-baseline="auto" font-size="9.917355765981121" font-family="&quot;Open Sans&quot;, sans-serif" fill="#1a1b1d"><tspan>adminis</tspan></text><text x="36.24281038451393" y="391.1290755571448" text-anchor="middle" dominant-baseline="auto" font-size="9.917355765981121" font-family="&quot;Open Sans&quot;, sans-serif" fill="#1a1b1d"><tspan>trative_</tspan></text></g><g class="node" data-id="4:407d7f85-e897-402b-b739-add5998db9c0:4"><circle cx="81.49730282296115" cy="251.2146428961338" r="30.000001192092896" fill="#ffc7b0"/><text x="81.49730282296115" y="251.2146428961338" text-anchor="middle" dominant-baseline="auto" font-size="9.917355765981121" font-family="&quot;Open Sans&quot;, sans-serif" fill="#1a1b1d"><tspan>adminis</tspan></text><text x="81.49730282296115" y="261.13199866211494" text-anchor="middle" dominant-baseline="auto" font-size="9.917355765981121" font-family="&quot;Open Sans&quot;, sans-serif" fill="#1a1b1d"><tspan>trative_</tspan></text></g><g class="node" data-id="4:407d7f85-e897-402b-b739-add5998db9c0:5"><circle cx="6.567680463092623" cy="130.91288933074736" r="30.000001192092896" fill="#ffc7b0"/><text x="6.567680463092623" y="130.91288933074736" text-anchor="middle" dominant-baseline="auto" font-size="9.917355765981121" font-family="&quot;Open Sans&quot;, sans-serif" fill="#1a1b1d"><tspan>adminis</tspan></text><text x="6.567680463092623" y="140.83024509672848" text-anchor="middle" dominant-baseline="auto" font-size="9.917355765981121" font-family="&quot;Open Sans&quot;, sans-serif" fill="#1a1b1d"><tspan>trative_</tspan></text></g><g class="node" data-id="4:407d7f85-e897-402b-b739-add5998db9c0:6"><circle cx="-177.28290686852836" cy="129.28434040754695" r="30.000001192092896" fill="#ffc7b0"/><text x="-177.28290686852836" y="129.28434040754695" text-anchor="middle" dominant-baseline="auto" font-size="9.917355765981121" font-family="&quot;Open Sans&quot;, sans-serif" fill="#1a1b1d"><tspan>adminis</tspan></text><text x="-177.28290686852836" y="139.20169617352806" text-anchor="middle" dominant-baseline="auto" font-size="9.917355765981121" font-family="&quot;Open Sans&quot;, sans-serif" fill="#1a1b1d"><tspan>trative_</tspan></text></g><g class="node" data-id="4:407d7f85-e897-402b-b739-add5998db9c0:7"><circle cx="-11.833768605345837" cy="-215.67696106485866" r="30.000001192092896" fill="#dee698"/><text x="-11.833768605345837" y="-215.67696106485866" text-anchor="middle" dominant-baseline="auto" font-size="9.917355765981121" font-family="&quot;Open Sans&quot;, sans-serif" fill="#1a1b1d"><tspan>base_co</tspan></text><text x="-11.833768605345837" y="-205.75960529887755" text-anchor="middle" dominant-baseline="auto" font-size="9.917355765981121" font-family="&quot;Open Sans&quot;, sans-serif" fill="#1a1b1d"><tspan>ns</tspan></text></g><g class="node" data-id="4:407d7f85-e897-402b-b739-add5998db9c0:8"><circle cx="40.59592968071235" cy="-373.8576968673006" r="30.000001192092896" fill="#ffc7b0"/><text x="40.59592968071235" y="-373.8576968673006" text-anchor="middle" dominant-baseline="auto" font-size="9.917355765981121" font-family="&quot;Open Sans&quot;, sans-serif" fill="#1a1b1d"><tspan>base_co</tspan></text><text x="40.59592968071235" y="-363.94034110131946" text-anchor="middle" dominant-baseline="auto" font-size="9.917355765981121" font-family="&quot;Open Sans&quot;, sans-serif" fill="#1a1b1d"><tspan>ns.bdz_</tspan></text></g><g class="node" data-id="4:407d7f85-e897-402b-b739-add5998db9c0:9"><circle cx="203.8470928850445" cy="-382.46705699260485" r="30.000001192092896" fill="#ffc7b0"/><text x="203.8470928850445" y="-382.46705699260485" text-anchor="middle" dominant-baseline="auto" font-size="9.917355765981121" font-family="&quot;Open Sans&quot;, sans-serif" fill="#1a1b1d"><tspan>base_su</tspan></text><text x="203.8470928850445" y="-372.5497012266237" text-anchor="middle" dominant-baseline="auto" font-size="9.917355765981121" font-family="&quot;Open Sans&quot;, sans-serif" fill="#1a1b1d"><tspan>bstatio</tspan></text></g><g class="node" data-id="4:407d7f85-e897-402b-b739-add5998db9c0:10"><circle cx="-176.5935268350193" cy="-251.3583622171671" r="30.000001192092896" fill="#ffc7b0"/><text x="-176.5935268350193" y="-251.3583622171671" text-anchor="middle" dominant-baseline="auto" font-size="9.917355765981121" font-family="&quot;Open Sans&quot;, sans-serif" fill="#1a1b1d"><tspan>base_co</tspan></text><text x="-176.5935268350193" y="-241.44100645118598" text-anchor="middle" dominant-baseline="auto" font-size="9.917355765981121" font-family="&quot;Open Sans&quot;, sans-serif" fill="#1a1b1d"><tspan>ns.pipel</tspan></text></g><g class="node" data-id="4:407d7f85-e897-402b-b739-add5998db9c0:11"><circle cx="-334.10681354979477" cy="-210.53709807956457" r="30.000001192092896" fill="#ffc7b0"/><text x="-334.10681354979477" y="-210.53709807956457" text-anchor="middle" dominant-baseline="auto" font-size="9.917355765981121" font-family="&quot;Open Sans&quot;, sans-serif" fill="#1a1b1d"><tspan>base_li</tspan></text><text x="-334.10681354979477" y="-200.61974231358346" text-anchor="middle" dominant-baseline="auto" font-size="9.917355765981121" font-family="&quot;Open Sans&quot;, sans-serif" fill="#1a1b1d"><tspan>ne.line_</tspan></text></g><g class="node" data-id="4:407d7f85-e897-402b-b739-add5998db9c0:12"><circle cx="139.16420092404078" cy="-135.8771565807605" r="30.000001192092896" fill="#ffc7b0"/><text x="139.16420092404078" y="-135.8771565807605" text-anchor="middle" dominant-baseline="auto" font-size="9.917355765981121" font-family="&quot;Open Sans&quot;, sans-serif" fill="#1a1b1d"><tspan>base_co</tspan></text><text x="139.16420092404078" y="-125.95980081477938" text-anchor="middle" dominant-baseline="auto" font-size="9.917355765981121" font-family="&quot;Open Sans&quot;, sans-serif" fill="#1a1b1d"><tspan>ns.dev_</tspan></text></g><g class="node" data-id="4:407d7f85-e897-402b-b739-add5998db9c0:13"><circle cx="287.83632665865366" cy="-66.10011202244708" r="30.000001192092896" fill="#ffc7b0"/><text x="287.83632665865366" y="-66.10011202244708" text-anchor="middle" dominant-baseline="auto" font-size="9.917355765981121" font-family="&quot;Open Sans&quot;, sans-serif" fill="#1a1b1d"><tspan>base_tr</tspan></text><text x="287.83632665865366" y="-56.18275625646596" text-anchor="middle" dominant-baseline="auto" font-size="9.917355765981121" font-family="&quot;Open Sans&quot;, sans-serif" fill="#1a1b1d"><tspan>ansfor</tspan></text></g></g></svg>